<?xml version="1.0" encoding="UTF-8" standalone="no"?> <svg id="Speedometer_Speed_limit_Speed_Technology_equipment_instrument" data-name="Speedometer `  Speed limit `  Speed `  Technology `  equipment `  instrument" xmlns="http://www.w3.org/2000/svg" width="700" height="700" viewBox="0 0 700 700">
  <g id="Layer_x0020_1">
    <g id="_417251936">
      <path id="_417220544" d="M153.8,539.11a5.989,5.989,0,1,0,9.187-7.687,244.158,244.158,0,1,1,378.25-5.17,5.988,5.988,0,0,0,9.376,7.453,256.116,256.116,0,1,0-396.812,5.4Z"/>
      <path id="_417220160" d="M356,124.677a6,6,0,1,0-12,0v49.179a6,6,0,1,0,12,0Z"/>
      <path id="_417220520" d="M480.179,161.147a5.973,5.973,0,0,0-10.358-5.953l-24.589,42.591a5.973,5.973,0,1,0,10.358,5.953Z"/>
      <path id="_417220256" d="M569.482,254.856a5.973,5.973,0,1,0-5.953-10.358l-42.591,24.589a5.973,5.973,0,0,0,5.953,10.358Z"/>
      <path id="_417220064" d="M600,380.677a6,6,0,0,0,0-12H550.819a6,6,0,0,0,0,12Z"/>
      <path id="_417220328" d="M563.529,504.856a5.973,5.973,0,0,0,5.953-10.358l-42.591-24.589a5.973,5.973,0,1,0-5.953,10.358Z"/>
      <path id="_417252272" d="M130.518,494.5a5.973,5.973,0,1,0,5.953,10.358l42.591-24.589a5.973,5.973,0,1,0-5.953-10.358Z"/>
      <path id="_417252392" d="M100,368.677a6,6,0,1,0,0,12h49.179a6,6,0,1,0,0-12Z"/>
      <path id="_417252296" d="M136.471,244.5a5.973,5.973,0,0,0-5.953,10.358l42.591,24.589a5.973,5.973,0,0,0,5.953-10.358L136.471,244.5Z"/>
      <path id="_417252464" d="M230.179,155.2a5.973,5.973,0,1,0-10.358,5.953l24.589,42.591a5.973,5.973,0,0,0,10.358-5.953Z"/>
      <path id="_417251840" d="M376.6,353.086a44.226,44.226,0,0,1-5.344,72.992l.006.011-.007,0,.007.013c-.128.074-.257.143-.389.206a44.237,44.237,0,1,1-29.658-82.047l42.307-111.4,5.6,2.109-5.609-2.131a6,6,0,0,1,11.431,3.585L376.6,353.086Z"/>
      <path id="_417252032" d="M237.978,517.412H462.023a6,6,0,0,1,6,6v51.912a6,6,0,0,1-6,6H237.978a6,6,0,0,1-6-6V523.412a6,6,0,0,1,6-6Z"/>
    </g>
  </g>
  <rect id="Rectangle_26" data-name="Rectangle 26" width="700" height="700" fill="none"/>
</svg>
