<?xml version="1.0" encoding="iso-8859-1"?>
<!-- Generator: Adobe Illustrator 19.0.0, SVG Export Plug-In . SVG Version: 6.00 Build 0)  -->
<svg version="1.1" id="Capa_1" xmlns="http://www.w3.org/2000/svg" xmlns:xlink="http://www.w3.org/1999/xlink" x="0px" y="0px"
	 viewBox="0 0 512 512" style="enable-background:new 0 0 512 512;" xml:space="preserve">
<g>
	<g>
		<path d="M342.268,328.123c-3.905-3.905-10.238-3.903-14.143,0.002c-29.805,29.805-74.049,38.238-112.719,21.481
			c-5.065-2.194-10.955,0.133-13.151,5.2s0.132,10.956,5.2,13.151c15.4,6.673,31.839,10.059,48.441,10.059
			c7.33,0,14.691-0.66,22.008-1.989c24.464-4.444,46.721-16.119,64.364-33.762C346.173,338.36,346.173,332.028,342.268,328.123z"/>
	</g>
</g>
<g>
	<g>
		<path d="M184.219,328.485c-0.107-0.117-0.232-0.248-0.344-0.36c-3.905-3.904-10.237-3.904-14.142,0
			c-3.864,3.864-3.904,10.104-0.122,14.018c1.955,2.036,4.579,3.069,7.211,3.069c2.4,0,4.808-0.859,6.724-2.601
			C187.633,338.896,187.934,332.571,184.219,328.485z"/>
	</g>
</g>
<g>
	<g>
		<path d="M256,90.974c-90.996,0-165.026,74.03-165.026,165.026S165.004,421.026,256,421.026S421.026,346.996,421.026,256
			S346.996,90.974,256,90.974z M256,401.026c-79.968,0-145.026-65.059-145.026-145.026S176.032,110.974,256,110.974
			c34.873,0,66.908,12.375,91.951,32.96l-53.273,26.07c-0.991,0.485-1.895,1.13-2.675,1.911l-60.045,60.044
			c-0.147,0.147-0.278,0.304-0.413,0.458C225.642,238.534,222,246.847,222,256c0,18.748,15.252,34,34,34
			c9.152,0,17.465-3.642,23.584-9.544c0.154-0.136,0.311-0.267,0.458-0.414l60.044-60.045c0.78-0.78,1.426-1.684,1.911-2.675
			l26.07-53.273c20.585,25.043,32.96,57.078,32.96,91.951C401.026,335.968,335.968,401.026,256,401.026z M268.005,224.196
			l36.961-36.961l38.772-18.974l-18.974,38.772l-36.96,36.962C284.356,234.891,277.109,227.644,268.005,224.196z M270,256
			c0,7.72-6.28,14-14,14c-7.72,0-14-6.28-14-14c0-7.72,6.28-14,14-14C263.72,242,270,248.28,270,256z"/>
	</g>
</g>
<g>
	<g>
		<path d="M502,202h-32.003c-5.234-20.833-13.451-40.657-24.505-59.124l22.641-22.641c3.905-3.905,3.905-10.237,0-14.143
			l-62.226-62.226c-3.905-3.905-10.237-3.905-14.143,0l-22.641,22.641c-18.466-11.053-38.29-19.27-59.123-24.504V10
			c0-5.523-4.477-10-10-10h-88c-5.523,0-10,4.477-10,10v32.003c-20.833,5.234-40.657,13.45-59.124,24.505l-22.641-22.641
			c-3.905-3.905-10.237-3.905-14.143,0l-62.226,62.226c-1.875,1.875-2.929,4.419-2.929,7.071s1.054,5.196,2.929,7.071l22.641,22.641
			C55.456,161.341,47.238,181.167,42.003,202H10c-5.523,0-10,4.477-10,10v88c0,5.523,4.477,10,10,10h32.003
			c5.234,20.833,13.452,40.659,24.506,59.124l-22.641,22.641c-1.875,1.875-2.929,4.419-2.929,7.071c0,2.652,1.054,5.196,2.929,7.071
			l62.226,62.226c1.875,1.875,4.419,2.929,7.071,2.929c2.652,0,5.196-1.054,7.071-2.929l22.641-22.641
			c18.466,11.055,38.29,19.271,59.124,24.506V502c0,5.523,4.477,10,10,10h88c5.523,0,10-4.477,10-10v-32.003
			c20.833-5.234,40.659-13.452,59.124-24.506l22.641,22.641c1.875,1.875,4.419,2.929,7.071,2.929c2.652,0,5.195-1.054,7.071-2.929
			l62.226-62.226c3.905-3.905,3.905-10.237,0-14.143l-22.641-22.641c11.055-18.466,19.271-38.29,24.505-59.124H502
			c5.523,0,10-4.477,10-10v-88C512,206.477,507.523,202,502,202z M492,290h-29.949c-4.722,0-8.8,3.303-9.782,7.921
			c-5.096,23.98-14.467,46.593-27.854,67.208c-2.572,3.96-2.023,9.179,1.315,12.517l21.189,21.189l-48.083,48.083l-21.188-21.189
			c-3.338-3.338-8.557-3.889-12.518-1.316c-20.614,13.387-43.226,22.758-67.208,27.855c-4.619,0.982-7.921,5.06-7.921,9.782V492h-68
			v-29.949c0-4.722-3.303-8.8-7.921-9.782c-23.981-5.096-46.593-14.468-67.208-27.855c-3.96-2.571-9.179-2.023-12.518,1.316
			l-21.188,21.189l-48.083-48.083l21.189-21.188c3.339-3.339,3.887-8.558,1.316-12.518c-13.387-20.614-22.758-43.226-27.855-67.208
			c-0.982-4.619-5.06-7.921-9.782-7.921H20v-68h29.949c4.722,0,8.8-3.303,9.782-7.921c5.097-23.982,14.468-46.594,27.855-67.208
			c2.571-3.96,2.023-9.179-1.316-12.518l-21.189-21.188l48.083-48.083l21.189,21.189c3.338,3.338,8.557,3.888,12.517,1.315
			c20.616-13.387,43.228-22.759,67.208-27.854c4.619-0.981,7.921-5.06,7.921-9.782V20h68v29.949c0,4.722,3.303,8.8,7.921,9.782
			c23.98,5.096,46.593,14.467,67.208,27.854c3.96,2.571,9.178,2.023,12.517-1.315l21.189-21.189l48.083,48.083l-21.189,21.189
			c-3.338,3.338-3.887,8.557-1.315,12.517c13.387,20.615,22.759,43.228,27.854,67.208c0.981,4.619,5.06,7.921,9.782,7.921H492V290z"
			/>
	</g>
</g>
<g>
	<g>
		<path d="M145.01,246H137c-5.523,0-10,4.477-10,10s4.477,10,10,10h8.01c5.523,0,10-4.477,10-10S150.533,246,145.01,246z"/>
	</g>
</g>
<g>
	<g>
		<path d="M184.789,170.647l-5.863-5.864c-3.905-3.905-10.237-3.905-14.143,0c-3.905,3.905-3.905,10.237,0,14.143l5.864,5.864
			c1.953,1.953,4.512,2.929,7.071,2.929c2.559,0,5.119-0.976,7.071-2.929C188.694,180.885,188.694,174.553,184.789,170.647z"/>
	</g>
</g>
<g>
	<g>
		<path d="M256,127c-5.523,0-10,4.477-10,10v5.727c0,5.523,4.477,10,10,10s10-4.477,10-10V137C266,131.477,261.523,127,256,127z"/>
	</g>
</g>
<g>
	<g>
		<path d="M375,246h-5.727c-5.523,0-10,4.477-10,10s4.477,10,10,10H375c5.523,0,10-4.477,10-10S380.523,246,375,246z"/>
	</g>
</g>
<g>
</g>
<g>
</g>
<g>
</g>
<g>
</g>
<g>
</g>
<g>
</g>
<g>
</g>
<g>
</g>
<g>
</g>
<g>
</g>
<g>
</g>
<g>
</g>
<g>
</g>
<g>
</g>
<g>
</g>
</svg>
