<?xml version="1.0" encoding="UTF-8"?>
<!DOCTYPE svg PUBLIC "-//W3C//DTD SVG 1.1//EN" "http://www.w3.org/Graphics/SVG/1.1/DTD/svg11.dtd">
<!-- Creator: CorelDRAW -->
<svg xmlns="http://www.w3.org/2000/svg" xml:space="preserve" width="1.70666in" height="1.70666in" version="1.1" style="shape-rendering:geometricPrecision; text-rendering:geometricPrecision; image-rendering:optimizeQuality; fill-rule:evenodd; clip-rule:evenodd"
viewBox="0 0 1707 1707"
 xmlns:xlink="http://www.w3.org/1999/xlink">
 <defs>
  <style type="text/css">
   <![CDATA[
    .fil0 {fill:black}
   ]]>
  </style>
 </defs>
 <g id="Layer_x0020_1">
  <metadata id="CorelCorpID_0Corel-Layer"/>
  <path class="fil0" d="M1174 575c0,-1 -1,-3 -1,-5 0,-47 -19,-92 -53,-123 -15,47 -50,80 -92,80 -57,0 -101,-59 -101,-133 0,-75 44,-134 101,-134 54,0 97,55 100,125 42,29 73,71 88,118 22,-18 50,-30 81,-30l63 0c35,0 63,29 63,64l0 124c0,35 -28,64 -63,64l-58 0 107 203c152,-23 297,95 297,258 1,143 -116,260 -260,260 -236,0 -348,-289 -180,-449l-47 -91c-34,0 -68,0 -101,0 7,32 17,83 24,140 16,143 7,307 -116,316l-350 25c0,0 -1,0 -2,0 -33,0 -35,-50 -2,-53l350 -25c117,-8 64,-305 42,-403 -185,-1 -375,-1 -559,12 0,0 0,0 -1,0 -3,0 -9,0 -30,-6l-44 76c36,31 63,71 78,115l199 0 0 -117c0,-16 14,-28 30,-26l293 40c14,2 24,15 22,30l-30 216c-2,12 -13,22 -26,22l-85 0 -84 0 -93 0 -1 0 -225 0c-35,104 -132,178 -247,178 -144,0 -260,-117 -260,-260 0,-154 132,-273 282,-260l36 -61c-32,-10 -68,-22 -111,-35 -1,-1 -3,-2 -5,-3 -120,-69 -163,-114 -148,-156 14,-39 73,-52 198,-44 83,5 159,15 167,20 156,90 319,79 358,75 84,-91 215,-131 338,-95l56 -18c0,-3 0,-7 0,-10 0,-8 1,-16 2,-24zm-286 640l20 -134c4,-35 57,-27 52,8l-19 126 32 0 24 -167 -237 -32 0 114 0 85 44 0 20 -134c4,-35 57,-27 52,8l-19 126 31 0zm344 -509c-18,-11 -34,-27 -44,-46l-33 10 205 392c14,-10 31,-17 48,-22l-35 -67c-1,-2 -2,-4 -3,-5l-138 -262zm65 -180c-40,0 -72,33 -72,73 0,27 14,50 36,63 2,1 5,2 7,4 9,4 19,6 29,6l63 0c5,0 10,-5 10,-11l0 -124c0,-6 -5,-11 -10,-11l-63 0zm24 576l-29 -56c-117,127 -31,347 154,347 114,0 208,-93 208,-207 0,-121 -104,-214 -219,-208l31 58c74,10 131,73 131,150 0,83 -67,151 -151,151 -83,0 -151,-68 -151,-151 0,-31 10,-60 26,-84zm-130 -249l-92 -176c-107,-29 -216,7 -285,83 -1,3 -4,6 -7,8 -21,25 -37,54 -48,86 115,-2 231,-2 344,-1 29,0 59,0 88,0zm255 235c-54,0 -98,44 -98,98 0,54 44,98 98,98 54,0 98,-44 98,-98 0,-54 -44,-98 -98,-98zm-978 86c-1,-18 -5,-30 -6,-41 -9,-36 -28,-71 -59,-99l-30 51c24,27 39,62 39,101 0,83 -68,151 -151,151 -83,0 -151,-68 -151,-151 0,-68 45,-125 106,-144l37 -64c-110,5 -200,95 -200,208 0,114 94,207 208,207 132,0 212,-110 207,-219zm52 41l187 0 0 -58 -187 0c1,9 2,19 2,29 0,10 -1,20 -2,29zm-189 -163l90 -155c-14,-5 -31,-10 -51,-16l-90 155c19,3 36,8 51,16zm136 -197c0,0 1,0 2,1 17,5 30,8 35,9 66,-4 132,-7 199,-9 8,-28 19,-54 33,-78 -74,2 -207,-8 -338,-82 -17,-3 -76,-11 -138,-15 -113,-8 -146,4 -154,8 4,8 25,36 121,91 40,13 90,29 137,44l2 0c38,12 74,23 101,31zm-206 233c-54,0 -98,44 -98,98 0,54 44,98 98,98 54,0 98,-44 98,-98 0,-54 -44,-98 -98,-98zm767 -775c-23,0 -48,33 -48,80 0,48 25,81 48,81 22,0 47,-33 47,-81 0,-47 -25,-80 -47,-80z"/>
 </g>
</svg>
