<?xml version="1.0" encoding="UTF-8"?>
<!DOCTYPE svg PUBLIC "-//W3C//DTD SVG 1.1//EN" "http://www.w3.org/Graphics/SVG/1.1/DTD/svg11.dtd">
<!-- Creator: CorelDRAW -->
<svg xmlns="http://www.w3.org/2000/svg" xml:space="preserve" width="1.70666in" height="1.70666in" version="1.1" style="shape-rendering:geometricPrecision; text-rendering:geometricPrecision; image-rendering:optimizeQuality; fill-rule:evenodd; clip-rule:evenodd"
viewBox="0 0 1707 1707"
 xmlns:xlink="http://www.w3.org/1999/xlink">
 <defs>
  <style type="text/css">
   <![CDATA[
    .fil0 {fill:#000002}
   ]]>
  </style>
 </defs>
 <g id="Layer_x0020_1">
  <metadata id="CorelCorpID_0Corel-Layer"/>
  <path class="fil0" d="M1578 782l-68 0 67 213 106 0c13,0 23,10 23,23 0,12 -10,23 -23,23l-91 0 61 191c2,7 0,15 -4,21 -4,5 -11,9 -18,9l-117 0 -26 0c-22,124 -125,213 -251,213 -125,0 -228,-89 -250,-213l-26 0 -339 0c-2,0 -4,0 -6,-1l-41 -10c-15,126 -122,224 -252,224 -141,0 -255,-114 -255,-255 0,-32 7,-63 18,-92l-68 -16c-7,-2 -13,-7 -16,-14 -2,-6 -2,-14 2,-20l123 -215c1,-3 4,-6 6,-8l247 -169 0 -134 -67 0c-13,0 -23,-10 -23,-22l0 -7 -33 0c-44,0 -79,-36 -79,-79l0 -15c0,-44 35,-79 79,-79l33 0 0 -7c0,-13 10,-23 23,-23l247 0 108 -83c10,-8 25,-6 32,4 8,10 6,24 -4,32l-106 81 0 175 0 1 0 167 40 266 114 0c12,0 23,11 23,23l0 61 62 0 132 -297c3,-9 12,-14 21,-14l225 0 0 -151 0 -174c0,-13 11,-23 23,-23l119 0 111 0 118 0c13,0 23,10 23,23l0 174 0 174c0,12 -10,23 -23,23zm-942 227l6 38 79 0 0 -38 -85 0zm-346 -532l0 -82 -33 0c-19,0 -34,15 -34,34l0 15c0,18 15,33 34,33l33 0zm1152 785l-409 0c22,98 104,167 204,167 101,0 183,-69 205,-167zm-435 -46l461 0 24 0c0,-140 -114,-254 -255,-254 -140,0 -254,114 -254,254l24 0 0 0zm-684 157c-84,0 -153,-69 -153,-153 0,-83 69,-152 153,-152 84,0 152,69 152,152 0,84 -68,153 -152,153zm0 -259c-59,0 -107,48 -107,106 0,59 48,107 107,107 59,0 106,-48 106,-107 0,-58 -47,-106 -106,-106zm1215 102l62 0 -138 -434 -232 0 0 0 -234 0 -131 297c-4,9 -12,14 -21,14l-100 0 -122 0c-13,0 -23,-10 -23,-23l0 -2 -11 -78 0 -1 -43 -287c0,-1 0,-2 0,-4l0 -146 -120 0 0 146c0,8 -4,15 -10,19l-252 173 -105 185 48 12c47,-75 128,-121 217,-121 65,0 125,25 170,66l1 1c1,1 2,2 4,3l0 1c2,1 3,2 4,4l1 0c1,2 2,3 3,4l1 1c1,1 2,2 3,3l1 1c1,1 2,3 3,4l2 1 2 3 1 2c1,1 2,2 3,3l1 2 3 2 1 2 2 3 1 2 3 3 1 2 2 3 1 2 2 3 1 3 2 2 2 3 1 2 1 3 2 2 1 4 1 1c1,2 1,3 2,4l1 1c6,14 12,29 16,44l0 0c0,2 0,4 1,5l0 1c1,2 1,4 1,6l0 0c1,2 1,4 2,6l0 0c0,2 0,4 1,6l0 0c0,2 0,4 0,5l1 1c0,2 0,4 0,6l0 0c0,2 1,4 1,6l0 0c0,2 0,4 0,6l0 0 49 12 312 0c0,-165 135,-300 300,-300 166,0 301,135 301,300zm-1007 4c0,-1 0,-3 0,-5 0,-2 0,-3 0,-5 0,-2 0,-4 0,-6 0,-1 0,-3 -1,-5 0,-2 0,-3 0,-5 0,-2 -1,-4 -1,-5 0,-2 0,-4 -1,-5 0,-2 0,-4 -1,-6l0 0c0,-1 0,-3 -1,-5l0 0c0,-1 -1,-3 -1,-5 -1,-1 -1,-3 -1,-5l0 0c-1,-1 -1,-3 -2,-5l0 0c0,-1 -1,-3 -2,-4l0 0c0,-2 -1,-4 -1,-5 -1,-2 -1,-3 -2,-5 -1,-2 -1,-3 -2,-5 -1,-1 -1,-3 -2,-4l0 0c-1,-2 -1,-3 -2,-5l0 0c-1,-1 -2,-3 -2,-4l0 0c-1,-2 -2,-3 -3,-5l0 0c-1,-1 -1,-3 -2,-4l0 0c-1,-2 -2,-3 -3,-5l0 0c-1,-1 -2,-3 -2,-4l0 0c-1,-1 -2,-3 -3,-4l0 0c-1,-2 -2,-3 -3,-4l0 0c-2,-3 -4,-6 -6,-8l0 0c-3,-4 -6,-8 -10,-12l0 0c-5,-6 -11,-12 -18,-17l0 0c-4,-4 -7,-7 -11,-10l0 0c-3,-2 -6,-4 -9,-6l0 0c-4,-2 -8,-5 -12,-8 -2,0 -3,-1 -5,-2l0 0c-1,-1 -3,-2 -4,-2l0 0c-2,-1 -3,-2 -5,-3l0 0c-1,0 -3,-1 -4,-2l0 0c-2,-1 -4,-1 -5,-2l0 0c-2,-1 -3,-1 -5,-2l0 0c-1,0 -3,-1 -5,-2l0 0c-1,0 -3,-1 -4,-1l0 0c-2,-1 -4,-1 -5,-2l0 0c-2,0 -4,-1 -5,-1l0 0c-2,-1 -4,-1 -5,-2l0 0c-2,0 -4,-1 -5,-1l0 0c-2,0 -4,-1 -5,-1l0 0c-2,0 -4,-1 -5,-1l0 0c-2,0 -4,-1 -6,-1l0 0c-1,0 -3,0 -5,-1 -2,0 -3,0 -5,0l0 0c-2,0 -4,-1 -5,-1 -2,0 -4,0 -6,0 -1,0 -3,0 -5,0 -2,0 -4,0 -5,0 -2,0 -3,0 -5,0l-2 0c-1,0 -2,0 -4,0l0 0 0 0c-2,0 -3,0 -5,0l-1 0c-1,0 -3,1 -4,1l-1 0 0 0c-2,0 -3,0 -5,0l0 0c-2,1 -3,1 -5,1l0 0c-100,15 -177,102 -177,206 0,116 93,209 209,209 115,0 208,-93 208,-209zm-129 -713l143 0 0 -141 -209 0 0 7 0 127 0 7 66 0zm924 55l0 -129 -73 0 0 129 73 0zm157 -129l0 129 73 0 0 -129 -73 0zm-46 129l0 -129 -66 0 0 129 66 0zm119 45l-96 0 -111 0 -96 0 0 129 303 0 0 -129z"/>
 </g>
</svg>
