<?xml version="1.0" encoding="UTF-8" standalone="no"?> <svg width="64" height="64" viewBox="0 0 64 64" fill="none" xmlns="http://www.w3.org/2000/svg">
<path d="M20.959 17.717C20.9133 17.5626 20.831 17.4215 20.719 17.3057C20.6071 17.1899 20.4688 17.1029 20.316 17.052L15.677 15.505L18.777 11.625L17.215 10.375L13.215 15.375C13.1145 15.5008 13.0458 15.649 13.0148 15.8071C12.9839 15.9652 12.9915 16.1283 13.0372 16.2828C13.0829 16.4372 13.1651 16.5784 13.2771 16.6942C13.389 16.81 13.5272 16.8971 13.68 16.948L18.323 18.5L15.223 22.38L16.785 23.63L20.785 18.63C20.8857 18.5033 20.9542 18.354 20.9845 18.1949C21.0148 18.0359 21.0061 17.8719 20.959 17.717Z" fill="black"/>
<path d="M27 17C27 15.0222 26.4135 13.0888 25.3147 11.4443C24.2159 9.79981 22.6541 8.51809 20.8268 7.76121C18.9996 7.00433 16.9889 6.8063 15.0491 7.19215C13.1093 7.578 11.3275 8.53041 9.92893 9.92894C8.53041 11.3275 7.578 13.1093 7.19215 15.0491C6.8063 16.9889 7.00433 18.9996 7.76121 20.8268C8.51808 22.6541 9.79981 24.2159 11.4443 25.3147C13.0888 26.4135 15.0222 27 17 27C19.6513 26.9971 22.1931 25.9426 24.0679 24.0679C25.9426 22.1931 26.9971 19.6513 27 17V17ZM9 17C9 15.4178 9.46919 13.871 10.3482 12.5554C11.2273 11.2398 12.4767 10.2145 13.9385 9.60897C15.4003 9.00347 17.0089 8.84504 18.5607 9.15372C20.1126 9.4624 21.538 10.2243 22.6569 11.3431C23.7757 12.462 24.5376 13.8874 24.8463 15.4393C25.155 16.9911 24.9965 18.5997 24.391 20.0615C23.7855 21.5233 22.7602 22.7727 21.4446 23.6518C20.129 24.5308 18.5823 25 17 25C14.879 24.9976 12.8456 24.154 11.3458 22.6542C9.846 21.1545 9.00238 19.121 9 17V17Z" fill="black"/>
<path d="M58.78 40.22C56.9344 38.3689 54.4863 37.2406 51.88 37.04L51.46 33.87L49.48 34.13L49.98 37.95L48.1 46.12C47.8508 47.2243 47.2325 48.2106 46.347 48.9161C45.4616 49.6215 44.3621 50.0039 43.23 50H38V52H43.23C43.8666 51.9939 44.4993 51.8997 45.11 51.72C45.0427 52.1435 45.006 52.5712 45 53C45 55.1217 45.8429 57.1566 47.3431 58.6568C48.8434 60.1571 50.8783 61 53 61C55.1217 61 57.1566 60.1571 58.6569 58.6568C60.1571 57.1566 61 55.1217 61 53C60.9929 51.5956 60.6207 50.2172 59.92 49H61C61.2652 49 61.5196 48.8946 61.7071 48.7071C61.8946 48.5196 62 48.2652 62 48C62.0048 46.5546 61.7226 45.1227 61.1699 43.7872C60.6171 42.4517 59.8048 41.2392 58.78 40.22V40.22ZM53 59C51.4087 59 49.8826 58.3679 48.7574 57.2426C47.6321 56.1174 47 54.5913 47 53C46.999 52.1398 47.1867 51.2898 47.55 50.51C48.0922 50.0793 48.5674 49.5704 48.96 49H57.46C58.236 49.861 58.7454 50.9287 58.9266 52.0736C59.1078 53.2184 58.953 54.3913 58.4809 55.4499C58.0087 56.5085 57.2396 57.4073 56.2667 58.0375C55.2939 58.6676 54.1591 59.002 53 59V59ZM49.91 47C49.95 46.86 50.01 46.72 50.05 46.57L51.79 39.04C53.8586 39.2248 55.8 40.1176 57.2866 41.5678C58.7733 43.018 59.714 44.9367 59.95 47H49.91Z" fill="black"/>
<path d="M53 56C53.5933 56 54.1734 55.8241 54.6667 55.4944C55.1601 55.1648 55.5446 54.6962 55.7716 54.148C55.9987 53.5999 56.0581 52.9967 55.9424 52.4147C55.8266 51.8328 55.5409 51.2982 55.1213 50.8787C54.7018 50.4591 54.1672 50.1734 53.5853 50.0576C53.0033 49.9419 52.4001 50.0013 51.852 50.2284C51.3038 50.4554 50.8352 50.8399 50.5056 51.3333C50.1759 51.8266 50 52.4067 50 53C50 53.7957 50.3161 54.5587 50.8787 55.1213C51.4413 55.6839 52.2044 56 53 56V56ZM53 52C53.1978 52 53.3911 52.0586 53.5556 52.1685C53.72 52.2784 53.8482 52.4346 53.9239 52.6173C53.9996 52.8 54.0194 53.0011 53.9808 53.1951C53.9422 53.3891 53.847 53.5673 53.7071 53.7071C53.5673 53.847 53.3891 53.9422 53.1951 53.9808C53.0011 54.0194 52.8 53.9996 52.6173 53.9239C52.4346 53.8482 52.2784 53.72 52.1685 53.5556C52.0586 53.3911 52 53.1978 52 53C52 52.7348 52.1054 52.4804 52.2929 52.2929C52.4804 52.1054 52.7348 52 53 52Z" fill="black"/>
<path d="M57 15H56C55.2766 15.0034 54.5679 15.2039 53.95 15.58C53.8541 15.1336 53.6084 14.7335 53.2537 14.4461C52.8989 14.1586 52.4566 14.0012 52 14H44C43.1154 14.0029 42.2568 14.2989 41.5584 14.8417C40.8599 15.3845 40.3611 16.1435 40.14 17H36.5C35.837 17 35.2011 17.2634 34.7322 17.7322C34.2634 18.2011 34 18.837 34 19.5C34 20.163 34.2634 20.7989 34.7322 21.2678C35.2011 21.7366 35.837 22 36.5 22H40.55C40.8967 22.6088 41.3987 23.1147 42.0048 23.4661C42.6109 23.8175 43.2994 24.0017 44 24V43C43.9976 43.7949 43.6808 44.5566 43.1187 45.1187C42.5566 45.6808 41.7949 45.9976 41 46H35C34.7348 46 34.4804 45.8946 34.2929 45.7071C34.1054 45.5196 34 45.2652 34 45V34C34.2652 34 34.5196 33.8946 34.7071 33.7071C34.8946 33.5196 35 33.2652 35 33V31C34.9976 30.2051 34.6808 29.4434 34.1187 28.8813C33.5566 28.3192 32.7949 28.0024 32 28H27.16C29.4233 25.9148 30.9904 23.184 31.6489 20.1779C32.3075 17.1718 32.0254 14.0359 30.8411 11.1956C29.6568 8.3552 27.6276 5.94782 25.0286 4.29995C22.4296 2.65208 19.3866 1.84346 16.3125 1.98378C13.2383 2.12409 10.2816 3.20655 7.84357 5.08432C5.4055 6.9621 3.60397 9.54433 2.68334 12.4808C1.76272 15.4172 1.76754 18.5658 2.69715 21.4994C3.62677 24.433 5.43619 27.0097 7.88 28.88C7.31825 29.4427 7.0019 30.2049 7 31C7 31.7956 7.31607 32.5587 7.87868 33.1213C8.44129 33.6839 9.20435 34 10 34H10.1C8.91512 34.7457 7.85541 35.6738 6.96 36.75C6.42058 36.2684 5.72314 36.0015 5 36C4.2625 36.0059 3.55299 36.2832 3.00701 36.779C2.46102 37.2748 2.11681 37.9544 2.04011 38.6879C1.96342 39.4215 2.15962 40.1575 2.59124 40.7556C3.02287 41.3536 3.65966 41.7717 4.38 41.93C4.13132 42.9345 4.00375 43.9652 4 45V51C4 51.2652 4.10536 51.5196 4.29289 51.7071C4.48043 51.8946 4.73478 52 5 52H9.07C9.02644 52.3316 9.00306 52.6656 9 53C9 55.1217 9.84285 57.1566 11.3431 58.6568C12.8434 60.1571 14.8783 61 17 61C19.1217 61 21.1566 60.1571 22.6569 58.6568C24.1571 57.1566 25 55.1217 25 53C24.9969 52.6656 24.9736 52.3316 24.93 52H36V50H30V43C29.9976 42.2051 29.6808 41.4434 29.1187 40.8813C28.5566 40.3192 27.7949 40.0024 27 40H19V42H27C27.2652 42 27.5196 42.1054 27.7071 42.2929C27.8946 42.4804 28 42.7348 28 43V46H10.1C10.3335 44.8721 10.9479 43.8589 11.8402 43.1305C12.7325 42.4021 13.8482 42.0029 15 42H17V40H15C13.1441 40.0021 11.3649 40.7403 10.0526 42.0526C8.74029 43.3649 8.00212 45.1441 8 47V50H6V45C6.00185 42.0832 7.16137 39.2864 9.22387 37.2239C11.2864 35.1614 14.0832 34.0019 17 34H32V45C32.0024 45.7949 32.3192 46.5566 32.8813 47.1187C33.4434 47.6808 34.2051 47.9976 35 48H41C41.6566 48 42.3068 47.8707 42.9134 47.6194C43.52 47.3681 44.0712 46.9998 44.5355 46.5355C44.9998 46.0712 45.3681 45.52 45.6194 44.9134C45.8707 44.3068 46 43.6566 46 43V24H48.12L49.21 32.13L51.19 31.87L50.14 24H52C52.4566 23.9988 52.8989 23.8414 53.2537 23.5539C53.6084 23.2665 53.8541 22.8664 53.95 22.42C54.5679 22.7961 55.2766 22.9966 56 23H57C57.2652 23 57.5196 22.8946 57.7071 22.7071C57.8946 22.5196 58 22.2652 58 22V16C58 15.7348 57.8946 15.4804 57.7071 15.2929C57.5196 15.1054 57.2652 15 57 15ZM17 59C15.4087 59 13.8826 58.3679 12.7574 57.2426C11.6321 56.1174 11 54.5913 11 53C11.0047 52.6649 11.0348 52.3306 11.09 52H14.18C14.0155 52.4531 13.9627 52.9392 14.0259 53.4171C14.0892 53.895 14.2666 54.3506 14.5433 54.7454C14.82 55.1401 15.1877 55.4624 15.6154 55.6849C16.043 55.9074 16.5179 56.0235 17 56.0235C17.4821 56.0235 17.957 55.9074 18.3846 55.6849C18.8123 55.4624 19.18 55.1401 19.4567 54.7454C19.7334 54.3506 19.9108 53.895 19.9741 53.4171C20.0373 52.9392 19.9845 52.4531 19.82 52H22.91C22.9652 52.3306 22.9953 52.6649 23 53C23 54.5913 22.3679 56.1174 21.2426 57.2426C20.1174 58.3679 18.5913 59 17 59V59ZM16 53C16 52.8022 16.0586 52.6089 16.1685 52.4444C16.2784 52.28 16.4346 52.1518 16.6173 52.0761C16.8 52.0004 17.0011 51.9806 17.1951 52.0192C17.3891 52.0578 17.5673 52.153 17.7071 52.2929C17.847 52.4327 17.9422 52.6109 17.9808 52.8049C18.0194 52.9989 17.9996 53.2 17.9239 53.3827C17.8482 53.5654 17.72 53.7216 17.5556 53.8315C17.3911 53.9413 17.1978 54 17 54C16.7348 54 16.4804 53.8946 16.2929 53.7071C16.1054 53.5196 16 53.2652 16 53ZM10 48H28V50H10V48ZM5.01 39.99C4.74709 39.9851 4.49602 39.8798 4.30823 39.6957C4.12044 39.5117 4.01017 39.2628 4 39C4.00135 38.7892 4.06926 38.5843 4.19405 38.4144C4.31883 38.2445 4.4941 38.1184 4.69482 38.0541C4.89555 37.9898 5.11146 37.9905 5.31174 38.0562C5.51201 38.1219 5.6864 38.2493 5.81 38.42C5.50578 38.9233 5.23842 39.448 5.01 39.99V39.99ZM23 32H10C9.86651 32.0012 9.73427 31.9742 9.61193 31.9207C9.48958 31.8673 9.37988 31.7887 9.29 31.69C9.1964 31.6014 9.12228 31.4943 9.07235 31.3755C9.02242 31.2567 8.99778 31.1288 9 31C9.00115 30.7961 9.06381 30.5973 9.17978 30.4296C9.29575 30.2619 9.45964 30.1331 9.65 30.06C11.6685 31.2052 13.9267 31.863 16.2445 31.9811C18.5622 32.0991 20.8755 31.6742 23 30.74V32ZM17 30C14.4288 30 11.9154 29.2376 9.77759 27.8091C7.63975 26.3806 5.9735 24.3503 4.98957 21.9749C4.00563 19.5994 3.74818 16.9856 4.24979 14.4638C4.7514 11.9421 5.98953 9.62569 7.80761 7.80761C9.62569 5.98952 11.9421 4.75139 14.4638 4.24979C16.9856 3.74818 19.5994 4.00562 21.9749 4.98956C24.3503 5.9735 26.3806 7.63974 27.8091 9.77758C29.2376 11.9154 30 14.4288 30 17C29.9968 20.4468 28.6262 23.7516 26.1889 26.1889C23.7516 28.6262 20.4468 29.9968 17 30ZM33 32H25V30H32C32.2652 30 32.5196 30.1054 32.7071 30.2929C32.8946 30.4804 33 30.7348 33 31V32ZM36.5 20C36.3674 20 36.2402 19.9473 36.1464 19.8535C36.0527 19.7598 36 19.6326 36 19.5C36 19.3674 36.0527 19.2402 36.1464 19.1464C36.2402 19.0527 36.3674 19 36.5 19H45.5C45.6326 19 45.7598 19.0527 45.8536 19.1464C45.9473 19.2402 46 19.3674 46 19.5C46 19.6326 45.9473 19.7598 45.8536 19.8535C45.7598 19.9473 45.6326 20 45.5 20H36.5ZM52 22H45.5C46.163 22 46.7989 21.7366 47.2678 21.2678C47.7366 20.7989 48 20.163 48 19.5C48 18.837 47.7366 18.2011 47.2678 17.7322C46.7989 17.2634 46.163 17 45.5 17H42.28C42.4545 16.6977 42.7051 16.4464 43.0068 16.2709C43.3086 16.0955 43.651 16.0021 44 16H52V22ZM56 21C55.4696 21 54.9609 20.7893 54.5858 20.4142C54.2107 20.0391 54 19.5304 54 19C54 18.4696 54.2107 17.9609 54.5858 17.5858C54.9609 17.2107 55.4696 17 56 17V21Z" fill="black"/>
</svg>
