<?xml version="1.0" encoding="UTF-8"?>
<!DOCTYPE svg PUBLIC "-//W3C//DTD SVG 1.1//EN" "http://www.w3.org/Graphics/SVG/1.1/DTD/svg11.dtd">
<!-- Creator: CorelDRAW -->
<svg xmlns="http://www.w3.org/2000/svg" xml:space="preserve" width="1.70666in" height="1.70666in" version="1.1" style="shape-rendering:geometricPrecision; text-rendering:geometricPrecision; image-rendering:optimizeQuality; fill-rule:evenodd; clip-rule:evenodd"
viewBox="0 0 1707 1707"
 xmlns:xlink="http://www.w3.org/1999/xlink">
 <defs>
  <style type="text/css">
   <![CDATA[
    .fil0 {fill:black}
   ]]>
  </style>
 </defs>
 <g id="Layer_x0020_1">
  <metadata id="CorelCorpID_0Corel-Layer"/>
  <path class="fil0" d="M866 631c7,-73 69,-130 144,-130l266 0 -25 -65c-3,-7 -2,-15 2,-21 5,-7 12,-10 20,-10 4,0 9,-1 14,-1 22,-1 47,-2 67,8 11,6 26,16 36,33 11,20 22,40 33,60 26,46 52,94 79,134 1,2 3,5 5,8 13,18 29,41 22,68 -3,12 -10,23 -22,33 116,40 200,150 200,279 0,163 -133,296 -295,296 -119,0 -221,-70 -268,-171 -8,9 -19,16 -32,21 -2,1 -5,1 -7,1l-385 0c-2,0 -4,0 -6,-1 -31,-8 -54,-31 -65,-64l-2 -6 -60 -34c-20,143 -144,254 -292,254 -163,0 -295,-133 -295,-296 0,-162 132,-295 295,-295 93,0 181,44 237,119l194 112 30 -23c0,-3 0,-6 0,-9 0,-23 6,-45 16,-63l-17 -17 -207 -31c-4,0 -9,-2 -12,-6l-428 -389c-8,-7 -10,-18 -5,-28 4,-9 14,-14 24,-13l332 55 51 0c118,0 215,94 221,211l43 33 92 -52zm84 191c36,23 60,63 60,109 0,70 -57,127 -127,127 -49,0 -92,-28 -113,-70l-88 67 6 23c1,2 2,5 2,7l3 10c6,16 16,27 30,32l377 0c12,-6 21,-20 25,-29 -6,-23 -9,-46 -9,-71 0,-122 76,-228 183,-272 1,-1 2,-1 3,-2 0,0 1,0 2,0 33,-13 70,-21 108,-21 5,0 11,1 16,1 10,-5 19,-8 26,-10 6,-2 10,-3 15,-6 10,-5 14,-10 15,-13 1,-6 -9,-20 -16,-31 -2,-3 -4,-6 -5,-8 -28,-42 -55,-90 -81,-137 -11,-21 -22,-41 -33,-59 -4,-8 -11,-12 -17,-15 -5,-3 -15,-4 -25,-4 0,0 -1,0 -1,0l41 105c11,30 10,58 -5,80 -14,21 -37,33 -67,34l-380 0 -82 46 137 107 0 0zm-469 -336l0 82 201 61c-15,-81 -87,-143 -172,-143l-29 0zm401 364c-24,0 -46,11 -61,29 0,1 -1,1 -1,2 -11,14 -18,31 -18,50 0,4 1,9 2,14 0,1 0,1 0,2 8,37 40,64 79,64 44,0 81,-36 81,-80 0,-45 -36,-81 -81,-81l0 0 -1 0 0 0zm-320 -75l207 31c5,0 9,3 13,6l21 20c15,-13 33,-21 52,-26l-158 -124 -246 -74c-10,-3 -16,-12 -16,-23l0 -103 -237 -39 364 332zm732 -227l-284 0c-46,0 -84,32 -95,74l359 0c9,0 23,-3 29,-13 6,-8 6,-22 1,-38l-10 -23zm-662 493c2,-6 5,-10 9,-14l45 -33 -172 -99 -33 58 151 88zm801 -261c-1,0 -1,0 -2,0 -7,-1 -13,-1 -19,-1 -25,0 -49,3 -71,10l50 125c7,-1 14,-2 21,-2 63,0 115,52 115,115 0,64 -52,116 -115,116 -64,0 -116,-52 -116,-116 0,-40 21,-75 52,-95l-50 -126c-80,42 -135,125 -135,221 0,137 112,249 249,249 136,0 248,-112 248,-249 0,-129 -100,-236 -227,-247zm-953 81c-47,-52 -114,-82 -185,-82 -137,0 -248,112 -248,248 0,137 111,249 248,249 131,0 240,-103 248,-233l-96 -55c-8,-5 -14,-12 -16,-22 -3,-9 -1,-18 3,-26l45 -78 1 -1zm-185 282c-63,0 -115,-52 -115,-116 0,-63 52,-115 115,-115 64,0 115,52 115,115 0,64 -51,116 -115,116zm0 -184c-38,0 -68,31 -68,68 0,38 30,69 68,69 38,0 69,-31 69,-69 0,-37 -31,-68 -69,-68zm1117 0c-1,0 -2,0 -3,0l24 60c5,12 -1,25 -13,30 -3,1 -6,2 -8,2 -10,0 -19,-6 -22,-15l-24 -60c-14,13 -23,31 -23,51 0,38 31,69 69,69 37,0 68,-31 68,-69 0,-37 -31,-68 -68,-68z"/>
 </g>
</svg>
