<?xml version="1.0" encoding="UTF-8"?>
<!DOCTYPE svg PUBLIC "-//W3C//DTD SVG 1.1//EN" "http://www.w3.org/Graphics/SVG/1.1/DTD/svg11.dtd">
<!-- Creator: CorelDRAW -->
<svg xmlns="http://www.w3.org/2000/svg" xml:space="preserve" width="512px" height="512px" version="1.1" style="shape-rendering:geometricPrecision; text-rendering:geometricPrecision; image-rendering:optimizeQuality; fill-rule:evenodd; clip-rule:evenodd"
viewBox="0 0 512 512"
 xmlns:xlink="http://www.w3.org/1999/xlink">
 <defs>
  <style type="text/css">
   <![CDATA[
    .fil0 {fill:black}
   ]]>
  </style>
 </defs>
 <g id="Layer_x0020_1">
  <metadata id="CorelCorpID_0Corel-Layer"/>
  <g id="_361709488">
   <g>
    <g>
     <path class="fil0" d="M350 354l-343 0c-2,0 -4,-1 -5,-3 -2,-1 -2,-3 -2,-5l6 -33c0,0 0,-1 0,-1 21,-77 68,-86 70,-87 0,0 1,0 1,0l44 0c4,0 7,3 7,7 0,4 -3,7 -7,7l-43 0c-2,1 -11,3 -22,12 -11,10 -26,29 -36,65l-5 24 331 0c0,-1 0,-2 1,-3 5,-16 17,-54 51,-68 8,-3 16,-5 24,-6l-45 -93 -40 2 10 40c0,2 0,3 0,4 -2,7 -4,15 -6,22 -7,23 -13,46 -17,70 -1,12 -11,21 -24,21l-62 0c-14,0 -25,-11 -25,-25l0 -68c0,-1 -1,-3 -1,-4 0,-4 3,-7 7,-7l1 0c4,0 7,3 7,7l0 72c0,6 5,11 11,11l62 0c6,0 10,-3 10,-9 0,0 0,0 0,0 4,-25 11,-48 17,-71 2,-7 4,-14 6,-21l-12 -47c0,-2 0,-4 2,-6 1,-2 3,-3 5,-3l53 -2c3,0 5,2 6,4l51 104c17,2 35,8 55,18 4,1 5,6 3,9 -1,4 -6,5 -9,3 -34,-17 -62,-21 -83,-12 -29,12 -39,44 -44,59 -3,8 -4,13 -10,13z"/>
    </g>
    <g>
     <path class="fil0" d="M328 172c-4,0 -7,-3 -7,-7l0 -38 -24 -31 -37 0c-4,0 -7,-3 -7,-7 0,-4 3,-7 7,-7l40 0c2,0 4,1 6,3l28 36c1,1 1,2 1,4l0 40c0,4 -3,7 -7,7z"/>
    </g>
    <g>
     <path class="fil0" d="M381 170c0,0 0,0 0,0 -4,0 -7,-3 -7,-7l1 -31 -47 0c-4,0 -7,-3 -7,-7 0,-4 3,-7 7,-7l54 0c2,0 4,1 5,2 1,2 2,3 2,5l-1 38c0,4 -3,7 -7,7z"/>
    </g>
    <g>
     <path class="fil0" d="M414 179c-13,0 -26,-4 -37,-10 -3,-2 -4,-7 -2,-10 2,-3 7,-4 10,-2 6,4 14,7 22,8l0 -41c-8,1 -16,3 -21,7 -4,2 -8,1 -10,-2 -2,-4 -1,-8 2,-10 10,-6 22,-9 36,-9 4,0 7,3 7,7l0 55c0,4 -3,7 -7,7z"/>
    </g>
    <g>
     <path class="fil0" d="M438 430c-41,0 -74,-33 -74,-74 0,-41 33,-74 74,-74 41,0 74,33 74,74 0,41 -33,74 -74,74zm0 -134c-33,0 -60,27 -60,60 0,33 27,60 60,60 33,0 60,-27 60,-60 0,-33 -27,-60 -60,-60z"/>
    </g>
    <g>
     <path class="fil0" d="M438 401c-26,0 -46,-20 -46,-45 0,-26 20,-46 46,-46 25,0 45,20 45,46 0,25 -20,45 -45,45zm0 -77c-18,0 -32,14 -32,32 0,17 14,31 32,31 17,0 31,-14 31,-31 0,-18 -14,-32 -31,-32z"/>
    </g>
    <g>
     <path class="fil0" d="M384 323c-2,0 -4,-1 -6,-3l-12 -17c-2,-3 -1,-8 2,-10 3,-2 8,-1 10,2l12 17c2,3 1,7 -2,10 -1,1 -3,1 -4,1zm28 -22c-2,0 -4,-1 -6,-3l-13 -18c-2,-3 -1,-7 2,-10 3,-2 7,-1 10,2l13 18c2,3 1,7 -2,10 -1,1 -3,1 -4,1z"/>
    </g>
    <g>
     <path class="fil0" d="M108 430c-41,0 -74,-33 -74,-74 0,-3 0,-7 1,-11 2,-4 6,-6 9,-5 4,2 6,6 5,9 -1,2 -1,4 -1,7 0,33 27,60 60,60 33,0 60,-27 60,-60 0,-3 0,-5 0,-7 -2,-3 0,-7 4,-9 4,-1 8,1 9,5 1,4 1,8 1,11 0,41 -33,74 -74,74z"/>
    </g>
    <g>
     <path class="fil0" d="M108 401c-12,0 -23,-5 -32,-13 -9,-9 -14,-20 -14,-32 0,-4 1,-8 2,-11 2,-4 6,-6 9,-5 4,2 6,6 5,9 -1,3 -2,5 -2,7 0,17 15,31 32,31 17,0 31,-14 31,-31 0,-3 0,-5 0,-7 -2,-3 0,-7 4,-9 4,-1 8,1 9,5 1,4 1,8 1,11 0,25 -20,45 -45,45z"/>
    </g>
    <g>
     <path class="fil0" d="M170 250c-21,0 -49,-5 -75,-26 -1,0 -2,-1 -2,-2 -2,-4 -3,-9 1,-14 6,-7 18,-7 41,-1 5,1 39,4 60,-8 0,0 0,0 0,0 1,-1 15,-7 28,2 12,9 13,17 12,23 -3,13 -22,20 -37,23 -3,0 -13,3 -28,3zm-62 -33c40,28 86,16 86,16 0,0 1,0 1,0 14,-2 25,-8 26,-12 1,-2 -2,-5 -6,-8 -6,-4 -13,-2 -14,-2 -26,15 -66,10 -68,10 0,0 -1,0 -1,0 -14,-4 -21,-4 -24,-4z"/>
    </g>
   </g>
  </g>
 </g>
</svg>
