<?xml version="1.0" encoding="utf-8"?>
<!-- Generator: Adobe Illustrator 27.0.0, SVG Export Plug-In . SVG Version: 6.00 Build 0)  -->
<svg version="1.1" id="Layer_1" xmlns="http://www.w3.org/2000/svg" xmlns:xlink="http://www.w3.org/1999/xlink" x="0px" y="0px"
	 viewBox="0 0 100 100" enable-background="new 0 0 100 100" xml:space="preserve">
<path d="M4.03,62.22c-0.07,0.26-0.03,0.53,0.1,0.76l11.7,20.26c0.13,0.23,0.35,0.4,0.61,0.47c0.25,0.07,0.53,0.03,0.76-0.1
	l10.18-5.88c3,2.45,6.33,4.38,9.93,5.74v11.75c0,0.55,0.45,1,1,1H61.7c0.55,0,1-0.45,1-1V83.46c3.6-1.36,6.93-3.29,9.93-5.74
	L82.8,83.6c0.23,0.13,0.5,0.17,0.76,0.1c0.26-0.07,0.47-0.24,0.61-0.47l11.7-20.26c0.13-0.23,0.17-0.5,0.1-0.76
	c-0.07-0.26-0.24-0.47-0.47-0.61l-10.18-5.88c0.31-1.92,0.47-3.84,0.47-5.73s-0.16-3.81-0.47-5.73l10.18-5.88
	c0.23-0.13,0.4-0.35,0.47-0.61c0.07-0.26,0.03-0.53-0.1-0.76l-11.7-20.26c-0.13-0.23-0.35-0.4-0.61-0.47
	c-0.25-0.07-0.53-0.03-0.76,0.1l-10.18,5.88c-3-2.45-6.33-4.38-9.92-5.74V4.79c0-0.55-0.45-1-1-1H38.3c-0.55,0-1,0.45-1,1v11.75
	c-3.6,1.36-6.93,3.29-9.92,5.74L17.2,16.4c-0.23-0.13-0.5-0.17-0.76-0.1c-0.26,0.07-0.47,0.24-0.61,0.47L4.13,37.02
	c-0.13,0.23-0.17,0.5-0.1,0.76c0.07,0.26,0.24,0.47,0.47,0.61l10.18,5.88c-0.31,1.92-0.47,3.84-0.47,5.73s0.16,3.81,0.47,5.73
	L4.5,61.61C4.27,61.74,4.1,61.96,4.03,62.22z M16.29,57.12c0.37-0.21,0.56-0.63,0.48-1.04C16.4,54.04,16.21,52,16.21,50
	s0.19-4.04,0.55-6.07c0.08-0.42-0.12-0.83-0.48-1.04l-9.92-5.73l10.7-18.53l9.92,5.73c0.37,0.21,0.83,0.17,1.15-0.1
	c3.13-2.66,6.67-4.71,10.51-6.08c0.4-0.14,0.66-0.52,0.66-0.94V5.79H60.7v11.44c0,0.42,0.27,0.8,0.66,0.94
	c3.84,1.37,7.38,3.42,10.51,6.08c0.32,0.28,0.78,0.32,1.15,0.1l9.92-5.73l10.7,18.53l-9.92,5.73c-0.37,0.21-0.56,0.63-0.48,1.04
	C83.6,45.96,83.79,48,83.79,50s-0.19,4.04-0.55,6.07c-0.08,0.42,0.12,0.83,0.48,1.04l9.92,5.73l-10.7,18.53l-9.92-5.73
	c-0.37-0.21-0.83-0.17-1.15,0.1c-3.13,2.66-6.67,4.71-10.51,6.08c-0.4,0.14-0.66,0.52-0.66,0.94v11.44H39.3V82.76
	c0-0.42-0.27-0.8-0.66-0.94c-3.84-1.37-7.38-3.42-10.51-6.08c-0.32-0.27-0.78-0.32-1.15-0.1l-9.92,5.73L6.37,62.84L16.29,57.12z"/>
<path d="M39.03,62.14l3.12-1.8c0.87,0.66,1.82,1.21,2.82,1.63v3.6c0,0.55,0.45,1,1,1h8.06c0.55,0,1-0.45,1-1v-3.6
	c1-0.42,1.95-0.97,2.82-1.63l3.12,1.8c0.48,0.28,1.09,0.11,1.37-0.37l4.03-6.98c0.13-0.23,0.17-0.5,0.1-0.76
	c-0.07-0.26-0.24-0.47-0.47-0.61l-3.12-1.8c0.07-0.55,0.1-1.09,0.1-1.63s-0.04-1.08-0.1-1.63l3.12-1.8c0.23-0.13,0.4-0.35,0.47-0.61
	c0.07-0.26,0.03-0.53-0.1-0.76l-4.03-6.98c-0.28-0.48-0.89-0.64-1.37-0.37l-3.12,1.8c-0.87-0.66-1.82-1.21-2.82-1.63v-3.6
	c0-0.55-0.45-1-1-1h-8.06c-0.55,0-1,0.45-1,1v3.6c-1,0.42-1.95,0.97-2.82,1.63l-3.12-1.8c-0.48-0.28-1.09-0.11-1.37,0.37l-4.03,6.98
	c-0.13,0.23-0.17,0.5-0.1,0.76c0.07,0.26,0.24,0.47,0.47,0.61l3.12,1.8c-0.07,0.55-0.1,1.09-0.1,1.63s0.04,1.08,0.1,1.63L34,53.43
	c-0.23,0.13-0.4,0.35-0.47,0.61c-0.07,0.26-0.03,0.53,0.1,0.76l4.03,6.98C37.94,62.25,38.55,62.42,39.03,62.14z M38.72,53.02
	c0.37-0.21,0.56-0.63,0.48-1.04c-0.12-0.66-0.18-1.32-0.18-1.97s0.06-1.31,0.18-1.97c0.08-0.42-0.12-0.83-0.48-1.04l-2.85-1.64
	l3.03-5.25l2.85,1.65c0.37,0.21,0.82,0.17,1.15-0.1c1.02-0.87,2.17-1.53,3.42-1.98c0.4-0.14,0.66-0.52,0.66-0.94v-3.29h6.06v3.29
	c0,0.42,0.27,0.8,0.66,0.94c1.25,0.45,2.4,1.11,3.42,1.98c0.32,0.27,0.78,0.32,1.15,0.1l2.85-1.65l3.03,5.25l-2.85,1.64
	c-0.37,0.21-0.56,0.63-0.48,1.04c0.12,0.66,0.18,1.32,0.18,1.97s-0.06,1.31-0.18,1.97c-0.08,0.42,0.12,0.83,0.48,1.04l2.85,1.64
	l-3.03,5.25l-2.85-1.65c-0.37-0.21-0.83-0.17-1.15,0.1c-1.02,0.87-2.17,1.53-3.42,1.98c-0.4,0.14-0.66,0.52-0.66,0.94v3.29h-6.06
	v-3.29c0-0.42-0.27-0.8-0.66-0.94c-1.25-0.45-2.4-1.11-3.42-1.98c-0.32-0.27-0.78-0.32-1.15-0.1l-2.85,1.65l-3.03-5.25L38.72,53.02z
	"/>
<path d="M50,57.23c3.99,0,7.23-3.24,7.23-7.23s-3.24-7.23-7.23-7.23s-7.23,3.24-7.23,7.23S46.01,57.23,50,57.23z M50,44.77
	c2.88,0,5.23,2.35,5.23,5.23s-2.35,5.23-5.23,5.23s-5.23-2.35-5.23-5.23S47.12,44.77,50,44.77z"/>
<path d="M50,72.57c12.45,0,22.57-10.13,22.57-22.57S62.45,27.43,50,27.43S27.43,37.55,27.43,50S37.55,72.57,50,72.57z M50,29.43
	c11.34,0,20.57,9.23,20.57,20.57S61.34,70.57,50,70.57S29.43,61.34,29.43,50S38.66,29.43,50,29.43z"/>
</svg>
