<?xml version="1.0" encoding="UTF-8" standalone="no"?> <svg xmlns="http://www.w3.org/2000/svg" viewBox="0 0 64 64"><g id="Layer_19" data-name="Layer 19"><path d="M60.85,25.18A1,1,0,0,0,60,24.7H48.56V23.18a3,3,0,0,0-3-3H14.33a3,3,0,0,0-3,3V24.7H4a1,1,0,0,0-1,1V38.3a1,1,0,0,0,1,1h7.3v1.52a3,3,0,0,0,3,3h31.2a3,3,0,0,0,3-3V39.3h5.22a1,1,0,0,0,.89-.56L60.9,26.15A1,1,0,0,0,60.85,25.18ZM5,37.3V26.7h6.3V37.3Zm41.56,3.52a1,1,0,0,1-1,1H14.33a1,1,0,0,1-1-1V23.18a1,1,0,0,1,1-1h31.2a1,1,0,0,1,1,1Zm6.6-3.52H48.63V26.7h9.76Z"/><path d="M28.25,13H42.1a4.73,4.73,0,0,0,0-9.46,1,1,0,0,0,0,2,2.73,2.73,0,0,1,0,5.46H28.25A1,1,0,0,0,28.25,13Z"/><path d="M49,9.27a2.73,2.73,0,0,1,0,5.46H35.17a1,1,0,0,0,0,2H49c6.25-.2,6.25-9.26,0-9.46A1,1,0,0,0,49,9.27Z"/><path d="M23,51.24H9.15a1,1,0,1,0,0,2H23a2.74,2.74,0,0,1,0,5.47,1,1,0,0,0,0,2C29.25,60.51,29.25,51.44,23,51.24Z"/><path d="M29.92,47.51H16.08a1,1,0,1,0,0,2H29.92a2.73,2.73,0,0,1,0,5.46,1,1,0,0,0,0,2C36.17,56.78,36.18,47.71,29.92,47.51Z"/></g></svg>