<?xml version="1.0" encoding="UTF-8"?>
<!DOCTYPE svg PUBLIC "-//W3C//DTD SVG 1.1//EN" "http://www.w3.org/Graphics/SVG/1.1/DTD/svg11.dtd">
<!-- Creator: CorelDRAW -->
<svg xmlns="http://www.w3.org/2000/svg" xml:space="preserve" width="1.70666in" height="1.70666in" version="1.1" style="shape-rendering:geometricPrecision; text-rendering:geometricPrecision; image-rendering:optimizeQuality; fill-rule:evenodd; clip-rule:evenodd"
viewBox="0 0 1707 1707"
 xmlns:xlink="http://www.w3.org/1999/xlink">
 <defs>
  <style type="text/css">
   <![CDATA[
    .fil0 {fill:black}
   ]]>
  </style>
 </defs>
 <g id="Layer_x0020_1">
  <metadata id="CorelCorpID_0Corel-Layer"/>
  <path class="fil0" d="M1302 948c-12,0 -57,-29 -69,-37 -50,47 -135,13 -135,-58 0,-36 24,-67 57,-76l0 -121c0,-30 45,-30 45,0l0 121c40,11 65,54 55,95l58 34c20,11 11,42 -11,42zm-674 -420l-430 0c-29,0 -29,-46 0,-46l430 0c29,0 29,46 0,46zm-116 139l-430 0c-30,0 -30,-45 0,-45l430 0c29,0 29,45 0,45zm87 139l-430 0c-29,0 -29,-45 0,-45l430 0c29,0 29,45 0,45zm-145 140l-431 0c-29,0 -29,-46 0,-46l431 0c29,0 29,46 0,46zm174 139l-430 0c-29,0 -29,-45 0,-45l430 0c29,0 29,45 0,45zm-116 139l-430 0c-30,0 -30,-45 0,-45l430 0c29,0 29,45 0,45zm666 158c-292,0 -529,-237 -529,-529 0,-291 237,-528 529,-528 291,0 528,237 528,528 0,292 -237,529 -528,529zm0 -1012c-267,0 -483,217 -483,483 0,267 216,483 483,483 266,0 483,-216 483,-483 0,-266 -217,-483 -483,-483zm-2 934c-344,-1 -562,-376 -389,-676 123,-214 400,-289 616,-165 213,123 290,400 165,616 -78,135 -232,229 -392,225zm-21 -855c-57,3 -112,18 -160,43 10,17 38,51 12,66 -26,15 -41,-26 -51,-44 -47,31 -87,71 -117,117 17,10 58,25 43,52 -15,26 -46,-1 -66,-12 -25,48 -40,102 -43,160l89 0c29,0 29,45 0,45l-89 0c3,57 18,111 43,160 17,-10 51,-38 66,-12 15,26 -26,41 -43,51 30,47 70,87 117,117 10,-17 25,-58 51,-43 26,15 -2,49 -12,66 48,25 103,40 160,43l0 -89c0,-30 45,-30 45,0l0 89c58,-3 112,-18 160,-43 -10,-17 -38,-51 -12,-66 27,-15 42,26 52,43 46,-30 86,-70 117,-117 -18,-10 -59,-25 -44,-51 15,-26 49,2 66,12 25,-49 40,-103 43,-160l-89 0c-29,0 -29,-45 0,-45l89 0c-3,-58 -18,-112 -43,-160 -20,11 -51,38 -66,12 -15,-27 26,-42 44,-52 -31,-46 -71,-86 -117,-117 -11,18 -25,59 -52,44 -26,-15 2,-49 12,-66 -48,-25 -102,-40 -160,-43l0 89c0,29 -45,29 -45,0l0 -89zm23 370c-46,0 -46,69 0,69 45,0 45,-69 0,-69z"/>
 </g>
</svg>
