<?xml version="1.0" encoding="UTF-8"?>
<!DOCTYPE svg PUBLIC "-//W3C//DTD SVG 1.1//EN" "http://www.w3.org/Graphics/SVG/1.1/DTD/svg11.dtd">
<!-- Creator: CorelDRAW -->
<svg xmlns="http://www.w3.org/2000/svg" xml:space="preserve" width="1.70666in" height="1.70666in" version="1.1" style="shape-rendering:geometricPrecision; text-rendering:geometricPrecision; image-rendering:optimizeQuality; fill-rule:evenodd; clip-rule:evenodd"
viewBox="0 0 1707 1707"
 xmlns:xlink="http://www.w3.org/1999/xlink">
 <defs>
  <style type="text/css">
   <![CDATA[
    .fil0 {fill:black}
   ]]>
  </style>
 </defs>
 <g id="Layer_x0020_1">
  <metadata id="CorelCorpID_0Corel-Layer"/>
  <path class="fil0" d="M853 966c-62,0 -112,-51 -112,-113 0,-62 50,-112 112,-112 62,0 113,50 113,112 0,62 -51,113 -113,113zm0 741c-154,0 -299,-42 -425,-114 0,0 -1,0 -1,-1 -1,0 -2,-1 -2,-1 -128,-74 -234,-181 -309,-308 0,-1 -1,-2 -2,-3 0,-1 -1,-2 -1,-3 -72,-125 -113,-269 -113,-424 0,-154 41,-298 113,-423 0,-1 1,-2 1,-3 1,-2 2,-3 3,-4 74,-127 181,-234 309,-308 0,0 0,0 1,-1l0 0c126,-72 271,-114 426,-114 155,0 300,41 425,114 1,0 1,0 2,0 0,1 1,1 1,1 128,75 235,182 310,309 0,1 1,2 1,3 1,0 1,1 1,2 72,125 114,270 114,424 0,155 -42,301 -115,426l0 1c0,0 0,1 -1,1 -74,128 -181,235 -309,310 0,0 -1,1 -2,1 -1,1 -2,1 -2,1 -125,72 -270,114 -425,114zm-23 -1660c-130,4 -252,38 -360,96l47 80c6,12 2,26 -9,32 -4,2 -8,3 -12,3 -8,0 -16,-4 -20,-11l-46 -80c-107,66 -197,156 -263,263l79 46c12,6 15,21 9,32 -4,7 -12,12 -20,12 -4,0 -8,-1 -12,-4l-80 -46c-58,108 -92,230 -96,360l92 0c13,0 24,10 24,23 0,13 -11,24 -24,24l-92 0c4,129 38,252 97,359l79 -46c11,-6 26,-2 32,9 7,11 3,25 -8,32l-80 46c66,106 156,197 263,263l46 -80c6,-11 21,-15 32,-9 11,7 15,21 8,32l-46 80c108,58 230,93 360,97l0 -93c0,-13 10,-23 23,-23 13,0 24,10 24,23l0 93c129,-4 252,-39 359,-97l-46 -80c-6,-11 -3,-25 9,-31 11,-7 25,-3 32,8l46 80c106,-66 197,-157 263,-263l-80 -46c-11,-7 -15,-21 -9,-32 7,-11 21,-15 32,-9l80 46c58,-107 93,-230 97,-359l-93 0c-13,0 -23,-11 -23,-24 0,-13 10,-23 23,-23l93 0c-4,-130 -39,-252 -97,-360l-80 47c-3,2 -7,3 -11,3 -8,0 -16,-5 -20,-12 -7,-11 -3,-25 8,-32l80 -46c-66,-107 -157,-197 -264,-263l-46 80c-4,7 -12,11 -20,11 -4,0 -8,-1 -11,-3 -12,-6 -15,-21 -9,-32l46 -80c-107,-58 -230,-92 -359,-96l0 92c0,13 -11,24 -24,24 -13,0 -23,-11 -23,-24l0 -92zm23 1429c-343,0 -622,-279 -622,-623 0,-343 279,-622 622,-622 344,0 623,279 623,622 0,344 -279,623 -623,623zm0 -1199c-317,0 -576,259 -576,576 0,318 259,576 576,576 318,0 576,-258 576,-576 0,-317 -258,-576 -576,-576zm-82 1039c-110,-19 -206,-77 -275,-158 -1,-1 -2,-2 -3,-3 -17,-20 -33,-43 -47,-67 -13,-24 -25,-49 -34,-74 -1,-1 -1,-1 -1,-2 -18,-49 -28,-103 -28,-159 0,-55 10,-109 28,-158 0,-1 0,-2 1,-2 9,-26 20,-51 34,-75 14,-23 30,-46 47,-67 1,-1 2,-2 3,-3 70,-81 166,-138 275,-157l1 -1c22,-4 46,-6 69,-7l0 0c4,0 8,0 12,0l0 0 0 0c4,0 8,0 12,0l0 0c24,1 47,3 70,7l1 1c109,19 205,76 274,157 1,1 3,2 3,3 18,21 34,44 47,67 14,24 26,49 35,75 0,0 1,1 1,2 18,49 27,103 27,158 0,56 -9,109 -27,159 0,0 -1,1 -1,2 -9,26 -21,51 -35,74 -13,24 -29,47 -47,68 0,1 -1,2 -3,3 -68,80 -164,137 -272,157 -1,0 -2,0 -3,0 -19,4 -38,6 -57,7l-1 0 0 0c-4,0 -7,0 -11,0l-1 0c-4,0 -8,0 -12,0 -4,0 -8,0 -12,0l0 0c-4,0 -8,0 -12,0l0 0c-19,-1 -38,-3 -57,-7l-1 0zm68 -886c-2,0 -3,0 -5,0l-4 1c-3,0 -6,0 -8,0l-2 0c-7,1 -14,2 -21,3l0 262c0,8 -5,17 -13,21 -6,2 -12,6 -18,10 -7,5 -17,5 -24,1l-227 -131c-22,28 -40,60 -54,94l226 131c8,4 13,12 12,21 0,4 0,7 0,10 0,4 0,7 0,10 1,9 -4,18 -12,22l-226 131c14,34 32,65 54,94l227 -131c7,-4 17,-4 24,1 6,4 12,7 18,10 8,4 13,12 13,21l0 262 0 0 0 0 1 0c3,1 6,1 8,1l4 1c2,0 4,0 6,0 2,0 4,0 6,1l4 0c3,0 5,0 8,0l0 0 2 0c3,0 7,1 10,1l2 0c6,0 12,0 19,-1l1 0c4,0 7,0 10,0l0 0 2 0c3,-1 5,-1 7,-1l5 0 5 -1c2,0 5,0 7,-1l2 0 0 -262c0,-9 5,-17 13,-21 6,-3 11,-6 17,-10 8,-5 17,-5 25,-1l227 131c11,-14 21,-29 30,-45l2 -3 0 -1 0 0 1 -2c8,-14 15,-28 21,-43l-227 -131c-8,-4 -12,-13 -12,-22 1,-3 1,-6 1,-10 0,-3 0,-6 -1,-10 0,-9 4,-17 12,-21l227 -132c-7,-16 -15,-33 -24,-48 -9,-15 -18,-29 -29,-43l-1 -3 -227 131c-8,5 -18,5 -25,0 -6,-4 -11,-7 -18,-10 -8,-4 -13,-13 -13,-21l0 -263c-19,-2 -38,-3 -57,-3l-2 0 -2 0c-2,0 -4,0 -7,0zm-87 12c-79,20 -149,61 -204,118l204 118 0 -236zm-305 293c-11,38 -17,77 -17,118 0,41 6,81 17,118l204 -118 -204 -118zm101 411c55,57 125,99 204,118l0 -236 -204 118zm406 118c79,-19 150,-61 205,-118l-205 -118 0 236zm306 -293c11,-37 17,-77 17,-118 0,-41 -6,-80 -17,-118l-205 118 205 118zm-101 -411c-55,-57 -126,-98 -205,-118l0 236 205 -118zm-383 136l0 0 0 0zm77 92c-36,0 -65,29 -65,65 0,37 29,66 65,66 37,0 66,-29 66,-66 0,-36 -29,-65 -66,-65z"/>
 </g>
</svg>
